<?xml version="1.0" standalone="no"?><!DOCTYPE svg PUBLIC "-//W3C//DTD SVG 1.1//EN" "http://www.w3.org/Graphics/SVG/1.1/DTD/svg11.dtd"><svg t="1598580836207" class="icon" viewBox="0 0 1024 1024" version="1.1" xmlns="http://www.w3.org/2000/svg" p-id="7104" width="16" height="16" xmlns:xlink="http://www.w3.org/1999/xlink"><defs><style type="text/css"></style></defs><path d="M288 192a96 96 0 1 1 0-192 96 96 0 0 1 0 192z m0 277.312a96 96 0 1 1 0-192 96 96 0 0 1 0 192z m0 277.376a96 96 0 1 1 0-192 96 96 0 0 1 0 192zM288 1024a96 96 0 1 1 0-192 96 96 0 0 1 0 192z m448-832a96 96 0 1 1 0-192 96 96 0 0 1 0 192z m0 277.312a96 96 0 1 1 0-192 96 96 0 0 1 0 192z m0 277.376a96 96 0 1 1 0-192 96 96 0 0 1 0 192z m0 277.312a96 96 0 1 1 0-192 96 96 0 0 1 0 192z" fill="#000000" p-id="7105"></path></svg>